<svg width="70" height="70" viewBox="0 0 70 70" fill="none" xmlns="http://www.w3.org/2000/svg">
<circle cx="35" cy="35" r="35" fill="white"/>
<g clip-path="url(#clip0_1425_2382)">
<path d="M24.3955 50.4878C23.0395 50.4878 21.7365 49.9268 20.6985 48.8878C18.3975 46.5788 18.3975 42.8238 20.6975 40.5158L38.6435 21.4588C41.4435 18.6548 45.7325 18.9058 48.8625 22.0408C50.2645 23.4458 51.0515 25.4718 51.0225 27.5998C50.9935 29.7068 50.1705 31.7228 48.7635 33.1308L35.2005 47.5698C34.8235 47.9738 34.1895 47.9928 33.7875 47.6138C33.3855 47.2348 33.3665 46.5998 33.7445 46.1968L47.3285 31.7358C48.3915 30.6708 49.0005 29.1608 49.0235 27.5718C49.0465 25.9828 48.4715 24.4818 47.4495 23.4578C45.5295 21.5338 42.4035 20.5258 40.0795 22.8558L22.1345 41.9128C20.5915 43.4598 20.5925 45.9448 22.1145 47.4708C22.8285 48.1858 23.6765 48.5338 24.5785 48.4788C25.4715 48.4238 26.3895 47.9668 27.1635 47.1908L41.4425 31.9928C41.9595 31.4748 43.0005 30.2028 41.9415 29.1418C41.3425 28.5408 40.9215 28.5788 40.7825 28.5898C40.3875 28.6248 39.9245 28.8988 39.4455 29.3798L28.6975 40.8098C28.3175 41.2138 27.6845 41.2328 27.2835 40.8528C26.8815 40.4738 26.8625 39.8388 27.2415 39.4368L38.0085 27.9848C38.8545 27.1338 39.7205 26.6728 40.6015 26.5938C41.2895 26.5328 42.3115 26.6788 43.3545 27.7248C44.9025 29.2758 44.7095 31.5508 42.8775 33.3878L28.5985 48.5848C27.4585 49.7288 26.0815 50.3928 24.7005 50.4778C24.5995 50.4848 24.4965 50.4878 24.3955 50.4878Z" fill="black"/>
</g>
<defs>
<clipPath id="clip0_1425_2382">
<rect width="32" height="32" fill="white" transform="translate(19 19)"/>
</clipPath>
</defs>
</svg>
