<svg width="32" height="32" viewBox="0 0 32 32" fill="none" xmlns="http://www.w3.org/2000/svg">
<path d="M5.39553 31.4878C4.03953 31.4878 2.73653 30.9268 1.69853 29.8878C-0.602469 27.5788 -0.602469 23.8238 1.69753 21.5158L19.6435 2.45879C22.4435 -0.34521 26.7325 -0.0942104 29.8625 3.04079C31.2645 4.44579 32.0515 6.47179 32.0225 8.59979C31.9935 10.7068 31.1705 12.7228 29.7635 14.1308L16.2005 28.5698C15.8235 28.9738 15.1895 28.9928 14.7875 28.6138C14.3855 28.2348 14.3665 27.5998 14.7445 27.1968L28.3285 12.7358C29.3915 11.6708 30.0005 10.1608 30.0235 8.57179C30.0465 6.98279 29.4715 5.48179 28.4495 4.45779C26.5295 2.53379 23.4035 1.52579 21.0795 3.85579L3.13453 22.9128C1.59153 24.4598 1.59253 26.9448 3.11453 28.4708C3.82853 29.1858 4.67653 29.5338 5.57853 29.4788C6.47153 29.4238 7.38953 28.9668 8.16353 28.1908L22.4425 12.9928C22.9595 12.4748 24.0005 11.2028 22.9415 10.1418C22.3425 9.54079 21.9215 9.57879 21.7825 9.58979C21.3875 9.62479 20.9245 9.89879 20.4455 10.3798L9.69753 21.8098C9.31753 22.2138 8.68453 22.2328 8.28353 21.8528C7.88153 21.4738 7.86253 20.8388 8.24153 20.4368L19.0085 8.98479C19.8545 8.13379 20.7205 7.67279 21.6015 7.59379C22.2895 7.53279 23.3115 7.67879 24.3545 8.72479C25.9025 10.2758 25.7095 12.5508 23.8775 14.3878L9.59853 29.5848C8.45853 30.7288 7.08153 31.3928 5.70053 31.4778C5.59953 31.4848 5.49653 31.4878 5.39553 31.4878Z" fill="black"/>
</svg>
