<svg width="36" height="36" viewBox="0 0 36 36" fill="none" xmlns="http://www.w3.org/2000/svg">
<path d="M34.8046 7.23673L33.4789 3.95813C33.142 3.14221 32.5136 2.53557 31.7509 2.3086C27.5157 0.977687 22.6559 0.157708 17.6434 0.0448847C12.521 0.134293 7.65702 0.926908 3.01238 2.34262C2.6512 2.46171 2.01977 3.06513 1.6853 3.86183L0.336197 7.15109C0.171194 7.53069 0.0738181 7.97797 0.0704227 8.4505L0.0648609 10.6256C0.0625971 10.6556 0.0625076 10.6906 0.0624117 10.7281C0.0599057 11.7082 0.753365 12.505 1.6107 12.5072C1.63476 12.5073 1.65882 12.5073 1.68288 12.5049L7.18996 12.519C8.0911 12.4963 8.81498 11.6581 8.81763 10.623C8.81774 10.578 8.81567 10.5355 8.81359 10.4905L8.81895 8.39536C8.81898 8.38536 8.819 8.37536 8.81903 8.36536C8.82049 7.79283 9.08204 7.29096 9.47427 7.00195C11.5487 5.73717 14.0045 4.9984 16.6093 5.00506C16.9505 5.00593 17.2873 5.01929 17.624 5.04516C17.8909 5.01834 18.254 5.00427 18.6214 5.00521C21.1978 5.01179 23.6214 5.74554 25.7484 7.03606C26.0605 7.28437 26.3195 7.78757 26.318 8.3601C26.318 8.3701 26.3179 8.3826 26.3179 8.3926L26.3124 10.5402C26.3102 10.5777 26.3078 10.6227 26.3077 10.6652C26.3051 11.6978 27.0247 12.5422 27.9235 12.5695L33.4371 12.5836C33.4568 12.5836 33.4809 12.5862 33.5049 12.5862C34.3623 12.5884 35.0598 11.7952 35.0623 10.8151C35.0624 10.7801 35.0625 10.7426 35.0604 10.7076L35.0659 8.53748C35.065 8.06495 34.9699 7.61717 34.8003 7.21921L34.8046 7.23673Z" fill="#FCAB64"/>
<path d="M26.2907 18.3159C24.9311 16.3198 24.1131 13.7725 24.1201 11.0099C24.1203 10.9399 24.1205 10.8699 24.1228 10.7999L24.1247 10.0598L21.9377 10.0542L21.9313 12.5544L13.1829 12.532L13.1893 10.0319L11.0022 10.0263L11.0001 10.8513C11 10.9113 11.002 10.9813 11.0018 11.0513C10.9947 13.814 10.1637 16.3545 8.77631 18.3711L2.20916 27.5049L2.18998 35.0054L32.8091 35.0837L32.8283 27.5832L26.2907 18.3159ZM17.5123 30.0442C13.8883 30.0349 10.9597 26.6697 10.9703 22.527C10.9809 18.3843 13.9267 15.0341 17.5507 15.0433C21.1747 15.0526 24.1034 18.4178 24.0928 22.5606C24.0822 26.7033 21.1363 30.0535 17.5123 30.0442Z" fill="#FCAB64"/>
<path d="M21.9035 22.5578C21.8965 25.3205 19.9333 27.5531 17.5166 27.5469C15.0998 27.5407 13.1481 25.2981 13.1552 22.5354C13.1622 19.7728 15.1254 17.5402 17.5421 17.5463C19.9589 17.5525 21.9106 19.7952 21.9035 22.5578Z" fill="#FCAB64"/>
</svg>
