<svg width="17" height="17" viewBox="0 0 17 17" fill="none" xmlns="http://www.w3.org/2000/svg">
<path d="M8.29746 8.92344L4.04746 13.1734C3.75371 13.4672 3.27871 13.4672 2.98809 13.1734L2.28184 12.4672C1.98809 12.1734 1.98809 11.6984 2.28184 11.4078L5.29434 8.39531L2.28184 5.38281C1.98809 5.08906 1.98809 4.61406 2.28184 4.32344L2.98496 3.61094C3.27871 3.31719 3.75371 3.31719 4.04434 3.61094L8.29434 7.86094C8.59121 8.15469 8.59121 8.62969 8.29746 8.92344ZM14.2975 7.86094L10.0475 3.61094C9.75371 3.31719 9.27871 3.31719 8.98809 3.61094L8.28184 4.31719C7.98809 4.61094 7.98809 5.08594 8.28184 5.37656L11.2943 8.38906L8.28184 11.4016C7.98809 11.6953 7.98809 12.1703 8.28184 12.4609L8.98809 13.1672C9.28184 13.4609 9.75684 13.4609 10.0475 13.1672L14.2975 8.91719C14.5912 8.62969 14.5912 8.15469 14.2975 7.86094Z" fill="black"/>
</svg>
