<svg width="16" height="17" viewBox="0 0 16 17" fill="none" xmlns="http://www.w3.org/2000/svg">
<path d="M7.99061 7.86094L12.2406 3.61094C12.5344 3.31719 13.0094 3.31719 13.3 3.61094L14.0062 4.31719C14.3 4.61094 14.3 5.08594 14.0062 5.37656L10.9969 8.39219L14.0094 11.4047C14.3031 11.6984 14.3031 12.1734 14.0094 12.4641L13.3031 13.1734C13.0094 13.4672 12.5344 13.4672 12.2437 13.1734L7.99374 8.92344C7.69686 8.62969 7.69686 8.15469 7.99061 7.86094ZM1.99061 8.92344L6.24061 13.1734C6.53436 13.4672 7.00936 13.4672 7.29999 13.1734L8.00624 12.4672C8.29999 12.1734 8.29999 11.6984 8.00624 11.4078L4.99686 8.39219L8.00936 5.37969C8.30311 5.08594 8.30311 4.61094 8.00936 4.32031L7.30311 3.61094C7.00936 3.31719 6.53436 3.31719 6.24374 3.61094L1.99374 7.86094C1.69686 8.15469 1.69686 8.62969 1.99061 8.92344Z" fill="#888888"/>
</svg>
