<svg width="13" height="17" viewBox="0 0 13 17" fill="none" xmlns="http://www.w3.org/2000/svg">
<path fill-rule="evenodd" clip-rule="evenodd" d="M6.08942 5.30763C5.26097 5.31647 4.59649 5.97831 4.60511 6.78605C4.61372 7.59379 5.29217 8.2413 6.12062 8.23247C6.94907 8.22363 7.61355 7.56179 7.60493 6.75405C7.59632 5.94631 6.91787 5.2988 6.08942 5.30763ZM6.13102 9.20741C4.7506 9.22213 3.61952 8.14311 3.60516 6.79671C3.5908 5.45031 4.6986 4.34741 6.07902 4.33269C7.45944 4.31796 8.59052 5.39699 8.60488 6.74338C8.61924 8.08978 7.51144 9.19269 6.13102 9.20741ZM6.04263 0.920382C2.72932 0.955722 0.0709051 3.60356 0.105361 6.83404C0.131452 9.28018 5.21162 16.5355 6.20901 16.5195C7.19101 16.5144 12.1304 9.11904 12.1047 6.70606C12.0702 3.47558 9.35594 0.885043 6.04263 0.920382Z" fill="#FCAB64"/>
</svg>
