<svg width="28" height="24" viewBox="0 0 28 24" fill="none" xmlns="http://www.w3.org/2000/svg">
<path d="M10.776 3.87224C12.4315 3.41202 14.1956 3.38554 15.8776 3.79565L15.8777 3.79567C16.9995 4.06917 18.0286 4.52004 18.9366 5.13577C19.6102 5.59256 20.5844 5.49046 21.1125 4.90762C21.6405 4.32482 21.5225 3.48205 20.8488 3.0252C19.6209 2.19257 18.2313 1.58339 16.7184 1.21452C14.4479 0.660933 12.0652 0.697122 9.82773 1.31913C8.04593 1.81446 6.43615 2.65624 5.11157 3.77779L5.78685 1.70485C6.01903 0.9921 5.53938 0.251488 4.71552 0.0506216C3.89163 -0.15027 3.0356 0.264717 2.80342 0.977466L1.21085 5.86642C0.978668 6.57917 1.45832 7.31978 2.28217 7.52065L7.85724 8.87992C7.99784 8.9142 8.13925 8.93054 8.27849 8.93052C8.95502 8.93049 9.57681 8.54418 9.7694 7.95308C10.0015 7.24033 9.5219 6.49972 8.69807 6.29885L7.04926 5.89686C8.07203 4.96442 9.34947 4.26881 10.776 3.87224Z" fill="url(#paint0_linear_1425_2479)"/>
<path d="M2.89867 17.5939C3.23128 17.9274 3.58972 18.2435 3.97263 18.5402C5.36655 19.6207 7.01932 20.3976 8.80714 20.8204L6.39803 21.3629C5.56968 21.5495 5.07297 22.2816 5.28862 22.9982C5.47017 23.6016 6.09881 24.0016 6.7874 24.0016C6.91662 24.0016 7.04798 23.9875 7.17888 23.958L12.8607 22.6784C13.2585 22.5889 13.5988 22.3663 13.8069 22.0596C14.0149 21.7529 14.0736 21.3873 13.9701 21.0431L12.5109 16.1936C12.2953 15.477 11.449 15.0473 10.6207 15.2339C9.79232 15.4204 9.29561 16.1526 9.51126 16.8692L9.94279 18.3034C8.49602 18.0105 7.15691 17.4078 6.04092 16.5429C4.7458 15.5391 3.82856 14.2352 3.38833 12.772C3.09471 11.7962 3.02484 10.8 3.18062 9.81106C3.29622 9.07734 2.70236 8.40149 1.85426 8.30151C1.00623 8.2015 0.224969 8.71524 0.109367 9.44899C-0.101292 10.7863 -0.00732793 12.1316 0.38866 13.4476C0.85287 14.9906 1.71085 16.4029 2.89867 17.5939Z" fill="url(#paint1_linear_1425_2479)"/>
<path d="M23.6033 5.86751C22.9945 5.34705 22.0132 5.35213 21.4116 5.87888L17.5765 9.23678C16.9749 9.76353 16.9807 10.6125 17.5896 11.133C18.1984 11.6534 19.1797 11.6483 19.7813 11.1216L20.9196 10.125C21.1293 10.7477 21.2464 11.3888 21.2691 12.0344C21.2771 12.2607 21.2734 12.4876 21.2582 12.7144C21.2521 12.8051 21.2441 12.8958 21.2343 12.9864C21.2048 13.2583 21.1585 13.5297 21.0953 13.7997C20.7502 15.2741 19.9146 16.6185 18.6789 17.6875C17.8548 18.4005 16.8971 18.9569 15.8323 19.3413C15.0424 19.6264 14.6692 20.4116 14.9988 21.095C15.2471 21.6097 15.8231 21.9199 16.4298 21.9199C16.6287 21.9199 16.831 21.8865 17.026 21.8161C18.4657 21.2964 19.7593 20.5453 20.8707 19.5838C22.5387 18.1407 23.6669 16.3247 24.1334 14.3319C24.2043 14.0286 24.2595 13.7238 24.2989 13.4184C24.3304 13.1742 24.3519 12.9295 24.3634 12.6848C24.3748 12.4401 24.3762 12.1954 24.3676 11.9512C24.3451 11.3151 24.2544 10.682 24.0971 10.0594L25.359 11.1382C25.6611 11.3964 26.0547 11.5252 26.4483 11.5252C26.848 11.5252 27.2476 11.3922 27.5508 11.1268C28.1524 10.6 28.1465 9.75109 27.5376 9.23062L23.6033 5.86751Z" fill="url(#paint2_linear_1425_2479)"/>
<defs>
<linearGradient id="paint0_linear_1425_2479" x1="11.2975" y1="0" x2="11.2975" y2="8.93052" gradientUnits="userSpaceOnUse">
<stop stop-color="#FE7272"/>
<stop offset="1" stop-color="#DF2323"/>
</linearGradient>
<linearGradient id="paint1_linear_1425_2479" x1="7.01003" y1="8.28906" x2="7.01003" y2="24.0016" gradientUnits="userSpaceOnUse">
<stop stop-color="#FE7272"/>
<stop offset="1" stop-color="#DF2323"/>
</linearGradient>
<linearGradient id="paint2_linear_1425_2479" x1="21.4385" y1="5.48047" x2="21.4385" y2="21.9199" gradientUnits="userSpaceOnUse">
<stop stop-color="#FE7272"/>
<stop offset="1" stop-color="#DF2323"/>
</linearGradient>
</defs>
</svg>
